<!DOCTYPE svg PUBLIC "-//W3C//DTD SVG 1.1//EN" "http://www.w3.org/Graphics/SVG/1.1/DTD/svg11.dtd">
<!-- Uploaded to: SVG Repo, www.svgrepo.com, Transformed by: SVG Repo Mixer Tools -->
<svg fill="#000000" width="800px" height="800px" viewBox="0 0 24 24" id="home-alt-5" data-name="Flat Color" xmlns="http://www.w3.org/2000/svg" class="icon flat-color">
<g id="SVGRepo_bgCarrier" stroke-width="0"/>
<g id="SVGRepo_tracerCarrier" stroke-linecap="round" stroke-linejoin="round"/>
<g id="SVGRepo_iconCarrier">
<path id="secondary" d="M19,11H5a1,1,0,0,0-1,1v8a2,2,0,0,0,2,2H18a2,2,0,0,0,2-2V12A1,1,0,0,0,19,11Z" style="fill: #000000;"/>
<path id="primary" d="M22,11.68,19.18,3.37A2,2,0,0,0,17.28,2H6.72a2,2,0,0,0-1.9,1.37L2.05,11.68a1,1,0,0,0,.14.9A1,1,0,0,0,3,13H21a1,1,0,0,0,.81-.42A1,1,0,0,0,22,11.68Z" style="fill: #000000;"/>
</g>
</svg>