<!DOCTYPE svg PUBLIC "-//W3C//DTD SVG 1.1//EN" "http://www.w3.org/Graphics/SVG/1.1/DTD/svg11.dtd">
<!-- Uploaded to: SVG Repo, www.svgrepo.com, Transformed by: SVG Repo Mixer Tools -->
<svg fill="#000000" width="800px" height="800px" viewBox="0 0 24 24" id="home-alt-5" data-name="Flat Line" xmlns="http://www.w3.org/2000/svg" class="icon flat-line">
<g id="SVGRepo_bgCarrier" stroke-width="0"/>
<g id="SVGRepo_tracerCarrier" stroke-linecap="round" stroke-linejoin="round"/>
<g id="SVGRepo_iconCarrier">
<path id="secondary" d="M5,12H19a0,0,0,0,1,0,0v8a1,1,0,0,1-1,1H6a1,1,0,0,1-1-1V12A0,0,0,0,1,5,12Z" style="fill: #ffffff; stroke-width:1.104;"/>
<path id="primary" d="M18,21H6a1,1,0,0,1-1-1V12H19v8A1,1,0,0,1,18,21ZM5.77,3.68,3,12H21L18.23,3.68A1,1,0,0,0,17.28,3H6.72A1,1,0,0,0,5.77,3.68Z" style="fill: none; stroke: #000000; stroke-linecap: round; stroke-linejoin: round; stroke-width:1.104;"/>
</g>
</svg>